<svg width="43" height="28" viewBox="0 0 43 28" fill="none" xmlns="http://www.w3.org/2000/svg">
<path d="M0.342344 28V1.435H7.54734V28H0.342344ZM17.6673 28V12.325C17.6673 10.785 17.1723 9.59333 16.1823 8.75C15.229 7.87 14.0373 7.43 12.6073 7.43C11.654 7.43 10.7923 7.63167 10.0223 8.035C9.25234 8.40167 8.64734 8.95167 8.20734 9.685C7.76734 10.4183 7.54734 11.2983 7.54734 12.325L4.74234 10.95C4.74234 8.89667 5.18234 7.11833 6.06234 5.615C6.97901 4.11167 8.20734 2.95667 9.74734 2.15C11.2873 1.30667 13.029 0.884998 14.9723 0.884998C16.8057 0.884998 18.474 1.30667 19.9773 2.15C21.4807 2.95667 22.6723 4.11167 23.5523 5.615C24.4323 7.08167 24.8723 8.86 24.8723 10.95V28H17.6673ZM34.9923 28V12.325C34.9923 10.785 34.4973 9.59333 33.5073 8.75C32.554 7.87 31.3623 7.43 29.9323 7.43C29.0157 7.43 28.154 7.63167 27.3473 8.035C26.5773 8.40167 25.9723 8.95167 25.5323 9.685C25.0923 10.4183 24.8723 11.2983 24.8723 12.325L20.7473 11.335C20.894 9.20833 21.4623 7.375 22.4523 5.835C23.4423 4.25833 24.744 3.04833 26.3573 2.205C27.9707 1.325 29.7673 0.884998 31.7473 0.884998C33.7273 0.884998 35.5057 1.30667 37.0823 2.15C38.659 2.95667 39.9057 4.13 40.8223 5.67C41.739 7.21 42.1973 9.04333 42.1973 11.17V28H34.9923Z" fill="url(#paint0_linear_903_373)"/>
<defs>
<linearGradient id="paint0_linear_903_373" x1="-2" y1="-3.06961" x2="44.1981" y2="-2.79941" gradientUnits="userSpaceOnUse">
<stop stop-color="#FFB661"/>
<stop offset="1" stop-color="#FF8C8C"/>
</linearGradient>
</defs>
</svg>
